<svg width="25" height="25" viewBox="0 0 25 25" fill="none" xmlns="http://www.w3.org/2000/svg">
<path d="M7.47799 20.2928C7.47799 21.6638 9.12299 22.3348 10.055 21.3428L22.058 8.5388C23.018 7.5108 22.303 5.8158 20.909 5.8158H3.99599C2.67799 5.8158 2.00499 7.4228 2.91799 8.3878L7.47799 13.2158V20.2928ZM9.47099 19.0278V12.4008L4.35599 6.9848C4.65899 7.3068 4.43399 7.8418 3.99599 7.8418H19.959L9.47099 19.0278Z" fill="#01162D"/>
<path d="M8.91599 13.7178L12.926 11.7678C13.1665 11.6461 13.3503 11.4357 13.4388 11.1811C13.5272 10.9264 13.5133 10.6474 13.4 10.4028C13.3469 10.2823 13.2701 10.1737 13.1742 10.0835C13.0782 9.9933 12.9652 9.92331 12.8416 9.87769C12.7181 9.83206 12.5867 9.81175 12.4551 9.81795C12.3236 9.82416 12.1947 9.85675 12.076 9.9138L8.06599 11.8638C7.56899 12.1058 7.35599 12.7168 7.59099 13.2278C7.644 13.3485 7.72077 13.4573 7.81673 13.5477C7.91268 13.6381 8.02586 13.7083 8.14951 13.754C8.27315 13.7997 8.40474 13.8201 8.53643 13.8139C8.66812 13.8076 8.7972 13.775 8.91599 13.7178Z" fill="#01162D"/>
</svg>
